<?xml version="1.0" encoding="UTF-8" standalone="no"?>
<svg
   xmlns:dc="http://purl.org/dc/elements/1.1/"
   xmlns:cc="http://creativecommons.org/ns#"
   xmlns:rdf="http://www.w3.org/1999/02/22-rdf-syntax-ns#"
   xmlns:svg="http://www.w3.org/2000/svg"
   xmlns="http://www.w3.org/2000/svg"
   xmlns:sodipodi="http://sodipodi.sourceforge.net/DTD/sodipodi-0.dtd"
   xmlns:inkscape="http://www.inkscape.org/namespaces/inkscape"
   xml:space="preserve"
   viewBox="0 0 2560 697.84998"
   height="697.84998"
   width="2560"
   y="0px"
   x="0px"
   id="Ebene_1"
   version="1.1"
   inkscape:version="0.91 r13725"
   sodipodi:docname="fraunhofer_fkie.svg"><sodipodi:namedview
     pagecolor="#ffffff"
     bordercolor="#666666"
     borderopacity="1"
     objecttolerance="10"
     gridtolerance="10"
     guidetolerance="10"
     inkscape:pageopacity="0"
     inkscape:pageshadow="2"
     inkscape:window-width="1920"
     inkscape:window-height="1044"
     id="namedview34"
     showgrid="false"
     fit-margin-top="0"
     fit-margin-left="0"
     fit-margin-right="0"
     fit-margin-bottom="0"
     inkscape:zoom="0.2631095"
     inkscape:cx="814.77854"
     inkscape:cy="-858.18104"
     inkscape:window-x="0"
     inkscape:window-y="0"
     inkscape:window-maximized="0"
     inkscape:current-layer="Ebene_1" /><metadata
     id="metadata65"><rdf:RDF><cc:Work
         rdf:about=""><dc:format>image/svg+xml</dc:format><dc:type
           rdf:resource="http://purl.org/dc/dcmitype/StillImage" /><dc:title></dc:title></cc:Work></rdf:RDF></metadata><defs
     id="defs63" /><style
     id="style3"
     type="text/css"><![CDATA[
	.st0{fill:#179C7D;}
	.st1{fill:#FFFFFF;}
]]></style><g
     id="g4162"
     transform="scale(10,10)"><g
       id="g5"><path
         class="st0"
         d="M 0,41.697 C 9.874,36.614 24.338,28.395 41.507,16.38 l 0,-4.033 C 26.396,22.233 11.031,30.171 0,35.422 l 0,6.275 z"
         id="path7"
         inkscape:connector-curvature="0"
         style="fill:#179c7d" /><path
         class="st0"
         d="M 0,29.654 C 10.994,25.175 26.36,18.255 41.507,9.246 l 0,-1.991 C 27.271,14.317 12.48,18.737 0,21.493 l 0,8.161 z"
         id="path9"
         inkscape:connector-curvature="0"
         style="fill:#179c7d" /><path
         class="st0"
         d="m 41.507,41.717 0,-20.285 c -9.45,7.966 -18.809,14.864 -26.67,20.285 l 26.67,0 z"
         id="path11"
         inkscape:connector-curvature="0"
         style="fill:#179c7d" /><path
         class="st0"
         d="m 9.53,41.717 c 7.465,-4.432 16.526,-10.215 25.55,-16.974 2.105,-1.578 4.255,-3.203 6.428,-4.883 l 0,-2.514 C 28.151,27.359 14.519,35.706 3.869,41.717 l 5.661,0 z"
         id="path13"
         inkscape:connector-curvature="0"
         style="fill:#179c7d" /><path
         class="st0"
         d="M 0,18.542 C 12.14,16.407 26.993,12.566 41.507,5.668 l 0,-2.261 C 26.881,9.973 12.242,12.757 0,13.748 l 0,4.794 z"
         id="path15"
         inkscape:connector-curvature="0"
         style="fill:#179c7d" /><path
         class="st0"
         d="M 0,0 0,11.62 C 0.907,11.564 1.831,11.499 2.775,11.426 12.868,10.65 26.642,8.866 41.507,2.439 L 41.507,0 0,0 Z"
         id="path17"
         inkscape:connector-curvature="0"
         style="fill:#179c7d" /><g
         id="g19"><g
           id="g21"><path
             class="st1"
             d="m 0,11.62 0,2.128 C 12.242,12.757 26.881,9.973 41.507,3.407 l 0,-0.968 C 26.643,8.866 12.868,10.65 2.775,11.426 1.831,11.5 0.907,11.564 0,11.62 Z"
             id="path23"
             inkscape:connector-curvature="0"
             style="fill:#ffffff" /></g></g><g
         id="g25"><g
           id="g27"><path
             class="st1"
             d="M 0,21.493 C 12.48,18.737 27.271,14.317 41.507,7.255 l 0,-1.586 C 26.993,12.566 12.14,16.407 0,18.542 l 0,2.951 z"
             id="path29"
             inkscape:connector-curvature="0"
             style="fill:#ffffff" /></g></g><g
         id="g31"><g
           id="g33"><path
             class="st1"
             d="M 0,35.422 C 11.031,30.171 26.396,22.233 41.507,12.347 l 0,-3.101 C 26.36,18.255 10.994,25.175 0,29.654 l 0,5.768 z"
             id="path35"
             inkscape:connector-curvature="0"
             style="fill:#ffffff" /></g></g><g
         id="g37"><g
           id="g39"><path
             class="st1"
             d="m 9.53,41.717 5.308,0 c 7.861,-5.42 17.22,-12.319 26.67,-20.285 l 0,-1.572 c -2.173,1.68 -4.322,3.305 -6.428,4.883 -9.024,6.759 -18.085,12.542 -25.55,16.974 z"
             id="path41"
             inkscape:connector-curvature="0"
             style="fill:#ffffff" /></g></g><g
         id="g43"><g
           id="g45"><path
             class="st1"
             d="m 0,41.717 3.869,0 C 14.519,35.706 28.151,27.36 41.507,17.346 l 0,-0.966 C 24.338,28.396 9.874,36.614 0,41.697 l 0,0.02 z"
             id="path47"
             inkscape:connector-curvature="0"
             style="fill:#ffffff" /></g></g></g><path
       d="m 243.927,41.697 5.338,0 0,-7.534 c 0,-2.947 0,-8.369 4.34,-8.369 0.957,0 1.916,0.158 2.395,0.439 l 0,-5.378 c -0.562,-0.16 -1.119,-0.16 -1.635,-0.16 -3.188,0 -5.379,3.23 -5.617,5.138 l -0.082,0 0,-4.658 -4.738,0 0,20.522 z m -5.34,-5.498 c -1.994,1.114 -4.223,2.073 -6.816,2.073 -3.301,0 -5.613,-1.873 -5.857,-5.185 l 14.184,0 c 0,-7.172 -2.148,-12.391 -9.762,-12.391 -6.371,0 -9.52,4.9 -9.52,10.838 0,6.738 3.941,10.641 10.719,10.641 2.871,0 5.096,-0.557 7.053,-1.635 l 0,-4.341 z m -12.674,-6.777 c 0.244,-2.75 1.752,-4.821 4.742,-4.821 2.99,0 4.188,2.232 4.344,4.821 l -9.086,0 z m -17.053,12.275 5.338,0 0,-16.62 4.66,0 0,-3.903 -4.66,0 0,-2.551 c 0,-1.593 0.561,-3.149 2.355,-3.149 1.154,0 1.832,0.44 2.305,0.72 l 0.441,-4.424 c -1.033,-0.239 -2.549,-0.439 -3.904,-0.439 -4.225,0 -6.535,2.869 -6.535,6.973 l 0,2.87 -3.943,0 0,3.903 3.943,0 0,16.62 z M 187.624,30.935 c 0,-3.068 1.672,-6.097 5.141,-6.097 3.508,0 5.178,2.95 5.178,6.097 0,3.429 -1.072,7.095 -5.178,7.095 -4.069,-10e-4 -5.141,-3.708 -5.141,-7.095 m -5.582,0.641 c 0,5.893 3.949,10.598 10.723,10.598 6.812,0 10.756,-4.705 10.756,-10.598 0,-6.776 -4.656,-10.88 -10.756,-10.88 -6.057,-0.001 -10.723,4.104 -10.723,10.88 m -22.232,10.121 5.342,0 0,-10.045 c 0,-2.628 0.836,-6.814 4.703,-6.814 3.426,0 3.463,3.389 3.463,5.898 l 0,10.961 5.336,0 0,-12.953 c 0,-4.622 -2.111,-8.049 -6.969,-8.049 -2.789,0 -5.1,1.276 -6.449,3.268 l -0.084,0 0,-12.152 -5.342,0 0,29.886 z m -24.342,0 5.336,0 0,-10.045 c 0,-2.628 0.84,-6.814 4.703,-6.814 3.426,0 3.465,3.389 3.465,5.898 l 0,10.961 5.344,0 0,-12.953 c 0,-4.622 -2.115,-8.049 -6.975,-8.049 -2.789,0 -5.062,0.918 -6.734,3.268 l -0.084,0 0,-2.789 -5.055,0 0,20.523 z m -5.502,-20.522 -5.342,0 0,10.042 c 0,2.627 -0.836,6.812 -4.701,6.812 -3.427,0 -3.467,-3.389 -3.467,-5.899 l 0,-10.955 -5.339,0 0,12.95 c 0,4.621 2.112,8.049 6.973,8.049 2.788,0 5.101,-1.273 6.733,-3.268 l 0.081,0 0,2.791 5.061,0 0,-20.522 z M 93.544,35.759 c 0,-3.15 3.546,-3.548 5.938,-3.548 l 2.312,0 c 0,1.596 -0.239,3.067 -1.117,4.226 -0.836,1.11 -2.109,1.834 -3.744,1.834 -1.912,0 -3.389,-0.761 -3.389,-2.512 m -2.708,-8.926 c 1.793,-1.357 4.063,-2.232 6.336,-2.232 3.146,0 4.621,1.115 4.621,4.424 l -2.949,0 c -2.23,0 -4.861,0.196 -6.893,1.194 -2.033,0.998 -3.505,2.79 -3.505,5.861 0,3.901 3.545,6.094 7.17,6.094 2.431,0 5.102,-1.273 6.335,-3.545 l 0.081,0 c 0.042,0.635 0.042,1.986 0.239,3.068 l 4.701,0 c -0.119,-1.598 -0.198,-3.033 -0.24,-4.586 -0.039,-1.513 -0.079,-3.067 -0.079,-5.14 l 0,-2.63 c 0,-6.057 -2.59,-8.646 -8.845,-8.646 -2.272,0 -5.06,0.6 -7.133,1.555 l 0.161,4.583 z m -16.057,14.864 5.339,0 0,-7.534 c 0,-2.947 0,-8.369 4.342,-8.369 0.957,0 1.913,0.158 2.393,0.439 l 0,-5.378 c -0.558,-0.16 -1.115,-0.16 -1.634,-0.16 -3.187,0 -5.379,3.23 -5.618,5.138 l -0.08,0 0,-4.658 -4.742,0 0,20.522 z m -19.285,0 5.579,0 0,-12.197 9.404,0 0,-4.383 -9.404,0 0,-6.852 9.882,0 0,-4.382 -15.461,0 0,27.814 z"
       id="path49"
       inkscape:connector-curvature="0" /><g
       id="g51"><path
         d="m 217.703,55.869 7.474,0 0,2.192 -4.777,0 0,3.429 4.546,0 0,2.194 -4.546,0 0,6.101 -2.697,0 0,-13.916 z"
         id="path53"
         inkscape:connector-curvature="0" /><path
         d="m 228.105,55.869 2.697,0 0,5.98 4.855,-5.98 3.312,0 -5.529,6.56 5.76,7.356 -3.521,0 -4.837,-6.46 -0.039,0 0,6.46 -2.697,0 0,-13.916 z"
         id="path55"
         inkscape:connector-curvature="0" /><path
         d="m 241.493,55.869 2.697,0 0,13.916 -2.697,0 0,-13.916 z"
         id="path57"
         inkscape:connector-curvature="0" /><path
         d="m 247.854,55.869 7.937,0 0,2.192 -5.241,0 0,3.429 4.8,0 0,2.194 -4.8,0 0,3.906 5.281,0 0,2.194 -7.977,0 0,-13.915 z"
         id="path59"
         inkscape:connector-curvature="0" /></g></g></svg>