<?xml version="1.0" encoding="UTF-8"?>
<!DOCTYPE svg PUBLIC "-//W3C//DTD SVG 1.1//EN" "http://www.w3.org/Graphics/SVG/1.1/DTD/svg11.dtd">
<!-- Creator: CorelDRAW -->
<svg xmlns="http://www.w3.org/2000/svg" xml:space="preserve" width="2598px" height="921px" shape-rendering="geometricPrecision" text-rendering="geometricPrecision" image-rendering="optimizeQuality" fill-rule="evenodd" clip-rule="evenodd"
viewBox="0 0 2480.56 879.357"
 xmlns:xlink="http://www.w3.org/1999/xlink">
 <g id="Ebene_x0020_1">
  <metadata id="CorelCorpID_0Corel-Layer"/>
  <path fill="#1F1A17" fill-rule="nonzero" d="M137.881 875.396l0 -197.628 -22.4591 0c0,0 0,94.6396 0,94.6396 0,49.7079 -23.5294,86.2905 -57.0386,86.2905 -28.1612,0 -36.0051,-19.4873 -36.0051,-52.4913 0,0 0,-128.439 0,-128.439l-22.3779 0c0,0 0.161276,137.586 0.161276,137.586 0,35.3916 12.2367,63.6205 53.23,63.6205 31.3732,0 54.1887,-19.4828 64.1697,-49.7023 0,0 0.712771,0.396987 0.712771,0.396987 -2.13831,12.3258 -3.2086,32.2101 -3.2086,45.7268 0,0 22.8155,0 22.8155,0z"/>
  <path fill="#1F1A17" fill-rule="nonzero" d="M340.372 875.396c0,0 0,-137.586 0,-137.586 0,-35.3871 -12.478,-63.6205 -53.4725,-63.6205 -31.3732,0 -54.1887,19.4828 -64.1686,49.7068 0,0 -0.713899,-0.401498 -0.713899,-0.401498 2.13831,-12.3258 3.20973,-32.2055 3.20973,-45.7268 0,0 -22.8155,0 -22.8155,0l0 197.628 22.4579 0c0,0 0,-94.6396 0,-94.6396 0,-49.7023 23.5294,-86.2859 57.0386,-86.2859 27.8071,0 36.0051,19.4839 36.0051,52.4879 0,0 0,128.438 0,128.438l22.4591 0z"/>
  <path fill="#1F1A17" fill-rule="nonzero" d="M432.352 622.099c0,-10.3397 -7.12997,-17.8948 -16.0419,-17.8948 -8.9119,0 -16.0419,7.95214 -16.0419,17.8948 0,9.93707 7.12997,17.8937 16.0419,17.8937 8.9119,0 16.0419,-7.95665 16.0419,-17.8937zm-4.99166 253.297l0 -197.628 -22.4579 0 0 197.628 22.4579 0z"/>
  <path fill="#1F1A17" fill-rule="nonzero" d="M621.677 677.768l-24.9538 0c0,0 -45.2745,139.175 -45.2745,139.175 -3.56386,10.3386 -6.77246,21.4734 -9.6258,31.8119 0,0 -0.35413,0 -0.35413,0 -2.85221,-11.1337 -5.70443,-21.0764 -9.6258,-33.004 0,0 -44.2054,-137.983 -44.2054,-137.983l-25.6654 0 67.3749 197.628 23.5294 0 68.8005 -197.628z"/>
  <path fill="#1F1A17" fill-rule="nonzero" d="M777.44 754.116c0,-42.5497 -19.9632,-79.5293 -68.09,-79.5293 -48.1233,0 -76.6444,43.7407 -76.6444,102.592 0,69.5866 28.1635,101.4 80.9221,101.4 22.1038,0 41.3531,-4.37249 57.395,-11.5307 0,0 -2.13831,-22.2673 -2.13831,-22.2673 -12.8333,7.15817 -32.7976,12.7216 -51.3331,12.7216 -41.3543,0 -63.0983,-26.2428 -60.96,-90.2614 0,0 120.137,0 120.137,0 0.711644,-5.56909 0.711644,-10.3386 0.711644,-13.1242zm-23.8835 -6.36306c0,0 -95.5396,0 -95.5396,0 4.99053,-33.004 23.5294,-54.0804 49.9087,-54.0804 28.874,0 46.3437,22.2673 45.6309,54.0804z"/>
  <path fill="#1F1A17" fill-rule="nonzero" d="M909.04 674.586c-38.8584,-5.16759 -57.3961,25.8459 -64.1697,55.2714 0,0 -0.712771,-0.396987 -0.712771,-0.396987 3.2086,-17.4967 4.6364,-37.7746 4.6364,-51.6928 0,0 -22.8155,0 -22.8155,0l0 197.628 22.4591 0c0,0 0,-78.7308 0,-78.7308 0,-68.7926 19.2482,-104.979 59.5311,-97.8211 0,0 1.07141,-24.2579 1.07141,-24.2579z"/>
  <path fill="#1F1A17" fill-rule="nonzero" d="M1046.9 817.34c0,-68.3967 -89.834,-38.1716 -89.834,-89.0705 0,-20.6794 14.2577,-33.7991 41.7073,-33.7991 12.478,0 25.6677,2.78003 37.4329,6.75667 0,0 1.06803,-22.2685 1.06803,-22.2685 -11.4077,-2.78455 -24.241,-4.37249 -35.2912,-4.37249 -43.849,0 -67.7325,24.2579 -67.7325,56.468 0,71.1756 89.4765,39.3626 89.4765,89.8645 0,22.67 -19.2482,36.1856 -46.6989,36.1856 -13.9036,0 -28.5199,-2.78455 -39.9276,-6.35855 0,0 -0.711644,23.8564 -0.711644,23.8564 10.6938,2.78455 24.241,3.97551 37.787,3.97551 45.6309,0 72.7241,-27.4349 72.7241,-61.2374z"/>
  <path fill="#1F1A17" fill-rule="nonzero" d="M1125.29 622.099c0,-10.3397 -7.12997,-17.8948 -16.043,-17.8948 -8.9119,0 -16.0419,7.95214 -16.0419,17.8948 0,9.93707 7.12997,17.8937 16.0419,17.8937 8.91303,0 16.043,-7.95665 16.043,-17.8937zm-4.99166 253.297l0 -197.628 -22.4591 0 0 197.628 22.4591 0z"/>
  <path fill="#1F1A17" fill-rule="nonzero" d="M1268.28 874.602c0,0 0,-22.2673 0,-22.2673 -7.84161,2.38756 -17.1099,3.57852 -26.3793,3.57852 -22.1038,0 -28.1635,-9.54572 -28.1635,-47.3192 0,0 0,-110.946 0,-110.946l54.5428 0 0 -19.8798 -54.5428 0 0 -73.5632 -22.4579 6.76118 0 66.802 -40.2829 0 0 19.8798 40.6392 0c0,0 0,123.271 0,123.271 0,39.7652 9.6258,57.2619 44.2031,57.2619 11.0536,0 23.173,-1.58795 32.4413,-3.57852z"/>
  <path fill="#1F1A17" fill-rule="nonzero" d="M1415.88 613.745c0,-9.93707 -6.77358,-17.0952 -15.3314,-17.0952 -8.55551,0 -15.328,7.15817 -15.328,17.0952 0,9.54572 6.77246,17.1009 15.328,17.1009 8.55777,0 15.3314,-7.55515 15.3314,-17.1009zm-65.5941 0c0,-9.93707 -6.77584,-17.0952 -15.3314,-17.0952 -8.9119,0 -15.328,7.15817 -15.328,17.0952 0,9.54572 6.41607,17.1009 15.328,17.1009 8.55551,0 15.3314,-7.55515 15.3314,-17.1009zm79.1402 261.651c-0.356386,-17.8948 -0.713899,-40.9562 -0.713899,-61.2386 0,0 0,-75.9508 0,-75.9508 0,-36.578 -13.1897,-63.6205 -60.245,-63.6205 -23.8869,0 -44.2065,6.36306 -60.9623,15.1092 0,0 2.49583,22.6655 2.49583,22.6655 15.6855,-11.5318 37.0754,-17.4922 54.1864,-17.4922 31.7274,0 42.067,17.8937 42.067,50.0993 0,0 0,17.4967 0,17.4967 -71.2997,0 -109.087,29.0285 -109.087,69.1907 0,31.4161 20.6771,46.9222 48.1267,46.9222 31.0146,0 54.1864,-21.0764 62.7419,-46.9222 0,0 0.712771,0.396987 0.712771,0.396987 -1.7808,11.5363 -2.13831,27.4394 -2.13831,43.3437 0,0 22.8155,0 22.8155,0zm-23.1718 -91.0611c0,36.1867 -22.1016,73.5643 -55.6142,73.5643 -18.5354,0 -30.6571,-11.9288 -30.6571,-31.4116 0,-19.4873 15.3291,-44.9373 86.2713,-44.9373 0,0 0,2.78455 0,2.78455z"/>
  <path fill="#1F1A17" fill-rule="nonzero" d="M1572.3 874.602c0,0 0,-22.2673 0,-22.2673 -7.84161,2.38756 -17.1099,3.57852 -26.3793,3.57852 -22.1016,0 -28.1635,-9.54572 -28.1635,-47.3192 0,0 0,-110.946 0,-110.946l54.5428 0 0 -19.8798 -54.5428 0 0 -73.5632 -22.4591 6.76118 0 66.802 -40.2817 0 0 19.8798 40.6392 0c0,0 0,123.271 0,123.271 0,39.7652 9.6258,57.2619 44.2031,57.2619 11.0536,0 23.173,-1.58795 32.4413,-3.57852z"/>
  <path fill="#00458E" fill-rule="nonzero" d="M1767.25 766.426c0,-58.4529 -22.8177,-92.6535 -65.2423,-92.6535 -24.5974,0 -44.5629,13.5212 -53.4748,34.9946 0,0 -0.356386,0 -0.356386,0 1.78193,-10.3397 2.85221,-26.6455 2.85221,-38.5742 0,0 0,-86.6322 0,-86.6322l-46.0809 0c0,0 0,286.251 0,286.251 20.3196,6.36419 40.7329,9.54572 66.4005,9.54572 60.9645,0 95.9016,-46.1283 95.9016,-112.931zm-47.7726 5.16759c0,48.9128 -18.8941,67.2001 -44.5629,67.2001 -9.98218,0 -17.4697,-1.19209 -23.8857,-3.57401 0,0 0,-55.674 0,-55.674 0,-33.004 14.2599,-63.6205 38.1468,-63.6205 20.676,0 30.3018,18.6877 30.3018,55.6684z"/>
  <path fill="#00458E" fill-rule="nonzero" d="M1957.05 772.784c0,-67.9941 -32.4413,-99.0121 -82.7086,-99.0121 -53.8323,0 -90.5536,44.5347 -90.5536,106.17 0,70.3862 32.4435,99.4147 82.7097,99.4147 53.1206,0 90.5524,-44.5403 90.5524,-106.573zm-47.0576 2.78567c0,40.1611 -17.1133,60.4435 -39.5712,60.4435 -26.3827,0 -39.5723,-20.6794 -39.5723,-61.2386 0,-40.5592 19.9632,-58.0559 40.2851,-58.0559 26.7368,0 38.8584,20.6794 38.8584,58.851z"/>
  <path fill="#00458E" fill-rule="nonzero" d="M2139.05 875.381c0,0 0,-138.783 0,-138.783 0,-34.5931 -12.8355,-63.2235 -52.7631,-63.2235 -28.8774,0 -49.5568,16.3058 -60.2506,39.7641 0,0 -0.357514,-0.396987 -0.357514,-0.396987 1.78193,-10.3386 2.49583,-25.8459 2.49583,-34.9946 0,0 -43.1373,0 -43.1373,0l0 197.634 45.6332 0c0,0 0,-95.4392 0,-95.4392 0,-34.592 18.1813,-64.0175 41.3565,-64.0175 16.7558,0 21.7463,12.3246 21.7463,33.004 0,0 0,126.453 0,126.453l45.2768 0z"/>
  <path fill="#00458E" fill-rule="nonzero" d="M2334.57 875.381c0,0 0,-138.783 0,-138.783 0,-34.5931 -12.8355,-63.2235 -52.7631,-63.2235 -28.8774,0 -49.5545,16.3058 -60.2506,39.7641 0,0 -0.357514,-0.396987 -0.357514,-0.396987 1.78418,-10.3386 2.49583,-25.8459 2.49583,-34.9946 0,0 -43.1373,0 -43.1373,0l0 197.634 45.6332 0c0,0 0,-95.4392 0,-95.4392 0,-34.592 18.1813,-64.0175 41.3554,-64.0175 16.7569,0 21.7474,12.3246 21.7474,33.004 0,0 0,126.453 0,126.453l45.2768 0z"/>
  <path fill="#00458E" fill-rule="nonzero" d="M2192.27 51.2902c0,0 -0.655253,8.56002 1.31727,12.31 6.26607,11.8927 34.5751,6.33825 38.8551,32.1446 2.90071,17.5024 -2.36726,26.1684 18.9471,35.051 0,0 -11.0525,15.2547 -11.0525,15.2547l-5.13038 -0.110525 0.0259395 95.2486c0,0 2.95259,0 2.95259,0 0.382325,6.27284 2.23192,10.3138 8.56002,12.963 0,0 -5.14616,4.76046 -5.14616,4.76046l0 32.8732 32.9454 0 0 10.0476 -2.81725 1.05562c0,0 0.0101502,2.13155 0.0101502,2.13155 1.71426,22.8301 10.3972,50.5019 19.6587,70.9399 22.8741,50.4759 60.2811,86.9592 112.808,107.543 0,0 -6.31119,11.1934 -6.31119,11.1934l-6.389 -0.0845852 0.269545 380.76 88.7863 0 -0.10263 -875.351 -875.505 -0.0203005 0 510.535 380.628 0.0248117 -0.0383453 -15.8637 -6.00668 0c0,0 -6.31119,-11.1934 -6.31119,-11.1934 52.5252,-20.579 89.9355,-57.0713 112.808,-107.543 8.98295,-19.82 18.1486,-48.7831 19.661,-71.0358 0,0 0.00789462,-2.03568 0.00789462,-2.03568l-2.81725 -1.05562 0 -10.0476 32.9465 0 0 -32.8732c0,0 -5.14729,-4.76046 -5.14729,-4.76046 6.3281,-2.64921 8.1777,-6.69013 8.56002,-12.963 0,0 2.95259,0 2.95259,0l-0.00676682 -95.1381 -4.9206 0c0,0 -11.2295,-15.2547 -11.2295,-15.2547 21.3121,-8.88258 16.0464,-17.5486 18.9471,-35.051 4.28001,-25.8064 32.5901,-20.252 38.8528,-32.1446 1.97478,-3.74994 1.4278,-12.3303 1.4278,-12.3303 -2.46876,-1.27103 -4.24054,-3.83453 -4.24054,-6.80065 0,-3.37777 2.03568,-6.18713 5.07511,-7.20328 0,0 0,-11.6908 0,-11.6908 0,-3.43303 5.14616,-3.43303 5.14616,0 0,0 0,11.6818 0,11.6818 3.19732,0.863897 5.09767,3.88979 5.09767,7.2123 0,2.97627 -1.59922,5.55443 -4.07475,6.82095z"/>
  <path fill="#00458E" fill-rule="nonzero" d="M2170.11 235.88c0,0 0,-49.3955 0,-49.3955 0,-10.3701 8.40213,-18.6437 18.779,-18.6437 10.3724,0 18.7136,8.27356 18.7136,18.6437 0,0 0,49.3955 0,49.3955 -2.45523,0 -3.87513,1.41765 -3.87513,3.03605 0,0 0,2.22177 0,2.22177l-29.7424 0c0,0 0,-2.22177 0,-2.22177 0,-1.6184 -1.4199,-3.03605 -3.03605,-3.03605 0,0 -0.839085,0 -0.839085,0z"/>
 </g>
</svg>
