<?xml version="1.0" encoding="UTF-8" standalone="no"?>
<!-- Created with Inkscape (http://www.inkscape.org/) -->

<svg
   xmlns:dc="http://purl.org/dc/elements/1.1/"
   xmlns:cc="http://creativecommons.org/ns#"
   xmlns:rdf="http://www.w3.org/1999/02/22-rdf-syntax-ns#"
   xmlns:svg="http://www.w3.org/2000/svg"
   xmlns="http://www.w3.org/2000/svg"
   xmlns:sodipodi="http://sodipodi.sourceforge.net/DTD/sodipodi-0.dtd"
   xmlns:inkscape="http://www.inkscape.org/namespaces/inkscape"
   id="svg2"
   version="1.1"
   inkscape:version="0.91 r13725"
   width="576.44458"
   height="584.55969"
   viewBox="0 0 576.44458 584.55969"
   sodipodi:docname="mass_mini.svg">
  <metadata
     id="metadata8">
    <rdf:RDF>
      <cc:Work
         rdf:about="">
        <dc:format>image/svg+xml</dc:format>
        <dc:type
           rdf:resource="http://purl.org/dc/dcmitype/StillImage" />
        <dc:title></dc:title>
      </cc:Work>
    </rdf:RDF>
  </metadata>
  <defs
     id="defs6" />
  <sodipodi:namedview
     pagecolor="#ffffff"
     bordercolor="#666666"
     borderopacity="1"
     objecttolerance="10"
     gridtolerance="10"
     guidetolerance="10"
     inkscape:pageopacity="0"
     inkscape:pageshadow="2"
     inkscape:window-width="2560"
     inkscape:window-height="1440"
     id="namedview4"
     showgrid="false"
     fit-margin-top="0"
     fit-margin-left="0"
     fit-margin-right="0"
     fit-margin-bottom="0"
     inkscape:zoom="0.52976889"
     inkscape:cx="-38.114387"
     inkscape:cy="324.47946"
     inkscape:window-x="1440"
     inkscape:window-y="600"
     inkscape:window-maximized="0"
     inkscape:current-layer="svg2" />
  <path
     style="fill:#000000"
     d="m 338.5,571.96161 c -14.85,-6.92142 -27.32222,-12.88497 -27.71605,-13.25234 -0.39382,-0.36737 5.34368,-13.64475 12.75,-29.50529 C 330.94028,513.34344 337,499.96316 337,499.47003 c 0,-0.49314 -0.82568,-0.89661 -1.83484,-0.89661 -3.71566,0 -15.09346,-4.41994 -35.02769,-13.60721 -11.24321,-5.18177 -20.60093,-9.26267 -20.79492,-9.06867 -0.194,0.19399 -5.99405,12.45905 -12.88901,27.25567 -6.89496,14.79663 -12.89395,27.26062 -13.33108,27.69775 -0.82043,0.82043 -56.06591,-24.24653 -56.10214,-25.45566 -0.0112,-0.37297 5.64661,-12.87667 12.57285,-27.786 6.92625,-14.90933 12.37478,-27.65418 12.10785,-28.32188 -0.26693,-0.6677 -9.60167,-5.46193 -20.74386,-10.65384 -11.1422,-5.19192 -23.18374,-11.40141 -26.75898,-13.79887 -3.57525,-2.39746 -6.83889,-3.99953 -7.25254,-3.56016 -0.41365,0.43938 -6.4847,13.17387 -13.49121,28.29887 -7.00652,15.125 -13.10876,27.91119 -13.56054,28.41376 -0.71606,0.79656 -55.47542,-23.85995 -56.342995,-25.36957 -0.172009,-0.2993 7.936915,-18.21232 18.019835,-39.80671 l 18.33257,-39.26252 -5.04137,-8.23748 c -10.62279,-17.35739 -20.87115,-41.15236 -25.4412,-59.0702 -1.239054,-4.85799 -2.489167,-9.06905 -2.778023,-9.35791 -0.288856,-0.28885 -14.959355,4.69837 -32.601109,11.08272 -17.641754,6.38435 -32.457214,11.60791 -32.923246,11.60791 C 20.349029,319.57342 0,264.82484 0,262.755 0,262.26948 20.352547,254.46849 45.227882,245.41945 89.27096,229.39766 90.47499,228.88947 91.1895,226.02004 c 5.78524,-23.23289 10.12915,-35.77408 16.0878,-46.44662 4.75247,-8.51215 11.37858,-18.49968 16.20297,-24.42273 l 4.38621,-5.38509 -16.05267,-43.84609 C 102.98483,81.804162 95.55616,61.158982 95.30564,60.041332 c -0.41134,-1.835136 2.31482,-3.037805 28.12744,-12.408666 15.72061,-5.707117 28.78678,-10.172718 29.03594,-9.923558 0.24916,0.24916 5.70429,14.83306 12.12252,32.408666 6.41822,17.575608 11.81463,32.122016 11.99202,32.325346 0.17738,0.20334 5.40615,-1.88936 11.61948,-4.650438 20.05405,-8.91163 39.48082,-14.51415 60.914,-17.56708 l 8.08892,-1.15218 18.39259,-39.412239 C 285.71448,17.984451 294.10564,0.13807569 294.24557,0.00257069 294.38551,-0.13293331 305.975,5.1056867 320,11.64395 c 14.025,6.538263 26.72961,12.459638 28.23247,13.158611 l 2.73247,1.270861 -13.48247,28.853391 C 330.06711,70.796178 324,84.166332 324,84.638272 c 0,0.47193 1.9125,1.34123 4.25,1.93176 7.24334,1.82993 12.59814,4.00029 32.44942,13.1521 10.55968,4.868208 19.59387,8.851288 20.07598,8.851288 0.4821,0 6.65531,-12.395068 13.71824,-27.544608 7.06293,-15.149531 13.10374,-27.691414 13.42403,-27.870848 0.51899,-0.290758 54.76759,24.767388 55.75347,25.753268 0.22012,0.22011 -4.83993,11.59666 -11.24456,25.281198 -6.40462,13.68454 -12.28599,26.36569 -13.06971,28.18033 l -1.42494,3.29934 7.78403,3.58102 c 22.79747,10.48789 38.30907,18.39135 42.6323,21.72198 2.66655,2.05432 4.98867,3.59184 5.16026,3.41672 0.17159,-0.17512 6.26674,-13.1434 13.54476,-28.8184 7.27802,-15.675 13.51192,-28.82101 13.8531,-29.21336 0.58937,-0.67774 53.5861,23.455 55.5088,25.27664 0.54282,0.51429 -6.47588,16.7087 -17.25,39.80134 C 549.17433,192.85188 541,210.62706 541,210.93845 c 0,0.31138 2.4203,4.29413 5.37844,8.85056 38.96612,60.01953 37.51744,141.49534 -3.6145,203.28441 -18.49583,27.78474 -42.79784,49.08428 -73.06515,64.03809 -19.25229,9.51175 -40.37658,15.80318 -60.31908,17.96479 l -6.12028,0.66338 -18.36134,39.41687 c -10.09873,21.67928 -18.5946,39.4107 -18.87971,39.40316 -0.28511,-0.008 -12.66838,-5.67669 -27.51838,-12.5981 z M 252.40121,388.82342 c 0.34521,-8.1125 1.08491,-26.675 1.64377,-41.25 1.61948,-42.23576 4.77596,-90.5124 5.84789,-89.44046 0.33099,0.33098 11.66482,26.77799 25.18629,58.77113 l 24.5845,58.16933 17.54621,0.27258 17.54621,0.27258 9.51719,-22.27258 c 5.23445,-12.24992 16.37744,-38.47258 24.76219,-58.27258 8.38476,-19.8 15.56526,-36.36085 15.95667,-36.8019 1.17625,-1.32539 4.257,44.81279 5.96289,89.3019 0.55886,14.575 1.29856,33.1375 1.64377,41.25 l 0.62766,14.75 24.38677,0 c 23.48295,0 24.38678,-0.072 24.38678,-1.9433 0,-4.66135 -5.22977,-89.0046 -7.04117,-113.5567 -2.87215,-38.92969 -8.42913,-93.60749 -10.54425,-103.75 l -0.57349,-2.75 -22.74612,0 -22.74612,0 -11.60988,23.75 c -13.13819,26.87642 -19.02682,39.98151 -35.74582,79.55193 -6.46066,15.29106 -12.08789,27.80398 -12.50496,27.80648 -0.41706,0.003 -5.23717,-10.70836 -10.71136,-23.80193 -14.00208,-33.49119 -27.37772,-63.45505 -38.86135,-87.05648 l -9.85294,-20.25 -23.92286,0 -23.92286,0 -0.55183,2.25 c -0.95629,3.89918 -5.53064,44.33748 -7.60727,67.25 -2.27581,25.11011 -5.32063,68.02895 -7.52003,106 -0.8283,14.3 -1.79188,30.6125 -2.14129,36.25 l -0.6353,10.25 24.50623,0 24.50622,0 0.62766,-14.75 z"
     id="path4138"
     inkscape:connector-curvature="0" />
</svg>
