<?xml version="1.0" encoding="UTF-8" standalone="no"?>
<!-- Created with Inkscape (http://www.inkscape.org/) -->

<svg
   xmlns:dc="http://purl.org/dc/elements/1.1/"
   xmlns:cc="http://creativecommons.org/ns#"
   xmlns:rdf="http://www.w3.org/1999/02/22-rdf-syntax-ns#"
   xmlns:svg="http://www.w3.org/2000/svg"
   xmlns="http://www.w3.org/2000/svg"
   xmlns:sodipodi="http://sodipodi.sourceforge.net/DTD/sodipodi-0.dtd"
   xmlns:inkscape="http://www.inkscape.org/namespaces/inkscape"
   id="svg2"
   version="1.1"
   inkscape:version="0.91 r13725"
   width="1066.8314"
   height="584.55969"
   viewBox="0 0 1066.8314 584.55969"
   sodipodi:docname="mass.svg">
  <metadata
     id="metadata8">
    <rdf:RDF>
      <cc:Work
         rdf:about="">
        <dc:format>image/svg+xml</dc:format>
        <dc:type
           rdf:resource="http://purl.org/dc/dcmitype/StillImage" />
        <dc:title></dc:title>
      </cc:Work>
    </rdf:RDF>
  </metadata>
  <defs
     id="defs6" />
  <sodipodi:namedview
     pagecolor="#ffffff"
     bordercolor="#666666"
     borderopacity="1"
     objecttolerance="10"
     gridtolerance="10"
     guidetolerance="10"
     inkscape:pageopacity="0"
     inkscape:pageshadow="2"
     inkscape:window-width="2560"
     inkscape:window-height="1440"
     id="namedview4"
     showgrid="false"
     inkscape:zoom="1.1815385"
     inkscape:cx="195.47571"
     inkscape:cy="371.32757"
     inkscape:window-x="1440"
     inkscape:window-y="600"
     inkscape:window-maximized="0"
     inkscape:current-layer="svg2"
     fit-margin-top="0"
     fit-margin-left="0"
     fit-margin-right="0"
     fit-margin-bottom="0" />
  <path
     style="fill:#000000"
     d="m 338.5,571.96161 c -14.85,-6.92142 -27.32222,-12.88497 -27.71605,-13.25234 -0.39382,-0.36737 5.34368,-13.64475 12.75,-29.50529 C 330.94028,513.34344 337,499.96316 337,499.47003 c 0,-0.49314 -0.82568,-0.89661 -1.83484,-0.89661 -3.71566,0 -15.09346,-4.41994 -35.02769,-13.60721 -11.24321,-5.18177 -20.60093,-9.26267 -20.79492,-9.06867 -0.194,0.19399 -5.99405,12.45905 -12.88901,27.25567 -6.89496,14.79663 -12.89395,27.26062 -13.33108,27.69775 -0.82043,0.82043 -56.06591,-24.24653 -56.10214,-25.45566 -0.0112,-0.37297 5.64661,-12.87667 12.57285,-27.786 6.92625,-14.90933 12.37478,-27.65418 12.10785,-28.32188 -0.26693,-0.6677 -9.60167,-5.46193 -20.74386,-10.65384 -11.1422,-5.19192 -23.18374,-11.40141 -26.75898,-13.79887 -3.57525,-2.39746 -6.83889,-3.99953 -7.25254,-3.56016 -0.41365,0.43938 -6.4847,13.17387 -13.49121,28.29887 -7.00652,15.125 -13.10876,27.91119 -13.56054,28.41376 -0.71606,0.79656 -55.47542,-23.85995 -56.34299,-25.36957 -0.17201,-0.2993 7.93691,-18.21232 18.01983,-39.80671 l 18.33257,-39.26252 -5.04137,-8.23748 c -10.62279,-17.35739 -20.87115,-41.15236 -25.4412,-59.0702 -1.23905,-4.85799 -2.48917,-9.06905 -2.77802,-9.35791 -0.28886,-0.28885 -14.95936,4.69837 -32.60111,11.08272 -17.64176,6.38435 -32.45722,11.60791 -32.92325,11.60791 C 20.34903,319.57342 0,264.82484 0,262.755 c 0,-0.48552 20.35255,-8.28651 45.22788,-17.33555 44.04308,-16.02179 45.24711,-16.52998 45.96162,-19.39941 5.78524,-23.23289 10.12915,-35.77408 16.0878,-46.44662 4.75247,-8.51215 11.37858,-18.49968 16.20297,-24.42273 l 4.38621,-5.38509 -16.05267,-43.84609 C 102.98483,81.804162 95.55616,61.158982 95.30564,60.041332 c -0.41134,-1.83514 2.31482,-3.0378 28.12744,-12.40867 15.72061,-5.70711 28.78678,-10.172714 29.03594,-9.92355 0.24916,0.24916 5.70429,14.83306 12.12252,32.40866 6.41822,17.57561 11.81463,32.122018 11.99202,32.325348 0.17738,0.20334 5.40615,-1.88936 11.61948,-4.650438 20.05405,-8.91163 39.48082,-14.51415 60.914,-17.56708 l 8.08892,-1.15218 18.39259,-39.41224 C 285.71448,17.984451 294.10564,0.13807569 294.24557,0.00257069 294.38551,-0.13293331 305.975,5.1056867 320,11.64395 c 14.025,6.538263 26.72961,12.459638 28.23247,13.158611 l 2.73247,1.270861 -13.48247,28.85339 C 330.06711,70.796182 324,84.166332 324,84.638272 c 0,0.47193 1.9125,1.34123 4.25,1.93176 7.24334,1.82993 12.59814,4.00029 32.44942,13.1521 10.55968,4.868208 19.59387,8.851288 20.07598,8.851288 0.4821,0 6.65531,-12.395068 13.71824,-27.544608 7.06293,-15.14953 13.10374,-27.69141 13.42403,-27.87085 0.51899,-0.29076 54.76759,24.76739 55.75347,25.75327 0.22012,0.22011 -4.83993,11.59666 -11.24456,25.281198 -6.40462,13.68454 -12.28599,26.36569 -13.06971,28.18033 l -1.42494,3.29934 7.78403,3.58102 c 22.79747,10.48789 38.30907,18.39135 42.6323,21.72198 2.66655,2.05432 4.98867,3.59184 5.16026,3.41672 0.17159,-0.17512 6.26674,-13.1434 13.54476,-28.8184 7.27802,-15.675 13.51192,-28.82101 13.8531,-29.21336 0.58937,-0.67774 53.5861,23.455 55.5088,25.27664 0.54282,0.51429 -6.47588,16.7087 -17.25,39.80134 -9.99085,21.41384 -18.15517,39.31701 -18.14294,39.78482 0.0122,0.46781 0.90222,1.97556 1.97776,3.35056 1.07554,1.375 1.96553,3.05016 1.97776,3.72258 0.0122,0.67242 -3.36151,9.12798 -7.4972,18.79013 -16.05319,37.50479 -36.16019,89.50634 -54.32104,140.48729 -4.40832,12.375 -8.32077,23.2875 -8.69432,24.25 -0.63618,1.63921 0.96699,1.75 25.32376,1.75 l 26.00294,0 3.96584,-11.25 c 2.18121,-6.1875 5.94053,-16.98424 8.35405,-23.99276 L 542.5,355.5879 l 14.18261,-0.007 c 12.63457,-0.006 14.24058,-0.19825 14.71362,-1.75724 1.1665,-3.84432 2.56264,-15.36254 3.2121,-26.5 l 0.68518,-11.75 -10.14675,0 C 558.89196,315.57342 555,315.18074 555,314.54966 c 0,-1.18448 12.81697,-35.7321 14.08897,-37.97624 0.46762,-0.825 0.8639,-1.19192 0.88062,-0.81538 0.0167,0.37655 0.66632,3.75155 1.44354,7.5 0.77723,3.74846 1.67723,9.62788 2,13.06538 1.48649,15.83079 1.80147,18.76785 2.03982,19.02073 0.14035,0.14891 9.50617,0.14891 20.81293,0 l 20.55775,-0.27073 -8.28301,-22 c -4.55565,-12.1 -10.07787,-26.5 -12.27159,-32 -2.19373,-5.5 -5.48801,-14.23165 -7.32063,-19.40368 -2.53545,-7.15555 -3.51405,-8.94856 -4.09338,-7.5 -0.41875,1.04703 -3.74901,10.00368 -7.4006,19.90368 C 570.95188,271.70281 569,275.87618 569,272.15007 c 0,-6.06244 -11.90381,-35.07198 -19.56986,-47.69165 -4.25191,-6.9994 -4.81413,-4.48723 6.18468,-27.635 l 7.24613,-15.25 23.92294,0 23.92293,0 5.28645,11.25 c 23.3387,49.66673 49.94474,116.64261 77.06614,194 l 5.87252,16.75 -26.71596,-0.005 -26.71597,-0.005 -8.37159,-23.99524 -8.37159,-23.99525 -28.85936,0 -28.85936,0 -0.59414,2.75 c -10.12554,46.8664 -38.94216,89.27868 -79.24517,116.63296 -11.1621,7.57589 -32.33325,17.9111 -45.24031,22.08515 -11.06875,3.57955 -26.25898,6.91618 -36.57877,8.03477 l -6.12028,0.66338 -18.36134,39.41687 c -10.09873,21.67928 -18.5946,39.4107 -18.87971,39.40316 -0.28511,-0.008 -12.66838,-5.67669 -27.51838,-12.5981 z M 252.40121,388.82342 c 0.34521,-8.1125 1.08491,-26.675 1.64377,-41.25 1.61948,-42.23576 4.77596,-90.5124 5.84789,-89.44046 0.33099,0.33098 11.66482,26.77799 25.18629,58.77113 l 24.5845,58.16933 17.54621,0.27258 17.54621,0.27258 9.51719,-22.27258 c 5.23445,-12.24992 16.37744,-38.47258 24.76219,-58.27258 8.38476,-19.8 15.56526,-36.36085 15.95667,-36.8019 1.17625,-1.32539 4.257,44.81279 5.96289,89.3019 0.55886,14.575 1.29856,33.1375 1.64377,41.25 l 0.62766,14.75 24.38677,0 c 23.48295,0 24.38678,-0.072 24.38678,-1.9433 0,-4.66135 -5.22977,-89.0046 -7.04117,-113.5567 -2.87215,-38.92969 -8.42913,-93.60749 -10.54425,-103.75 l -0.57349,-2.75 -22.74612,0 -22.74612,0 -11.60988,23.75 c -13.13819,26.87642 -19.02682,39.98151 -35.74582,79.55193 -6.46066,15.29106 -12.08789,27.80398 -12.50496,27.80648 -0.41706,0.003 -5.23717,-10.70836 -10.71136,-23.80193 -14.00208,-33.49119 -27.37772,-63.45505 -38.86135,-87.05648 l -9.85294,-20.25 -23.92286,0 -23.92286,0 -0.55183,2.25 c -0.95629,3.89918 -5.53064,44.33748 -7.60727,67.25 -2.27581,25.11011 -5.32063,68.02895 -7.52003,106 -0.8283,14.3 -1.79188,30.6125 -2.14129,36.25 l -0.6353,10.25 24.50623,0 24.50622,0 0.62766,-14.75 z M 773,406.53657 c -17.7481,-2.17768 -35.0541,-6.97388 -47.21679,-13.08569 l -5.71679,-2.87272 6.06298,-17.25237 c 3.33464,-9.4888 6.49256,-18.42918 7.0176,-19.86751 l 0.95463,-2.61515 8.69918,3.7464 c 16.12194,6.94309 31.27105,9.98389 49.7393,9.98389 14.95876,0 26.7498,-3.23091 31.67175,-8.67851 4.97966,-5.51147 6.1865,-15.80141 2.69835,-23.00698 -3.65577,-7.5518 -13.44034,-13.81814 -32.41021,-20.75649 -26.82986,-9.81318 -37.52837,-14.78003 -47.21152,-21.91824 -18.75012,-13.82217 -26.78219,-36.53809 -21.72157,-61.43194 4.32949,-21.29733 20.09268,-38.64556 42.03343,-46.26004 25.55232,-8.86787 61.60863,-7.49578 88.89966,3.38301 10.89722,4.34386 13.61148,5.94224 12.93785,7.61888 -0.34258,0.85267 -3.52659,9.63316 -7.07559,19.51221 -3.549,9.87904 -6.58604,18.09521 -6.74899,18.25816 -0.16295,0.16295 -3.67733,-1.26588 -7.80973,-3.17517 -13.85182,-6.39993 -21.43902,-7.98818 -38.30354,-8.0182 -17.65202,-0.0314 -24.16404,1.45879 -29.20324,6.6828 -3.81069,3.95045 -5.29676,7.56627 -5.29676,12.88773 0,11.07369 8.50342,18.45375 30.43193,26.41169 43.84254,15.91062 59.83261,26.13004 68.6142,43.85202 5.28185,10.65922 7.40019,22.24472 6.63299,36.27681 -1.75816,32.15654 -20.85881,51.87505 -57.06902,58.91504 -9.70147,1.88617 -39.87857,2.72712 -50.6101,1.41037 z m 186,0 c -17.7481,-2.17768 -35.0541,-6.97388 -47.2168,-13.08569 l -5.7168,-2.87272 6.063,-17.25237 c 3.3346,-9.4888 6.4926,-18.42918 7.0176,-19.86751 l 0.9546,-2.61515 8.6992,3.7464 c 16.1219,6.94309 31.2711,9.98389 49.7393,9.98389 14.9588,0 26.7498,-3.23091 31.6718,-8.67851 4.9796,-5.51147 6.1865,-15.80141 2.6983,-23.00698 -3.6558,-7.5518 -13.4403,-13.81814 -32.4102,-20.75649 -26.8299,-9.81318 -37.5284,-14.78003 -47.2115,-21.91824 -18.7501,-13.82217 -26.7822,-36.53809 -21.7216,-61.43194 4.3295,-21.29733 20.0927,-38.64556 42.0334,-46.26004 25.5524,-8.86787 61.6087,-7.49578 88.8997,3.38301 10.8972,4.34386 13.6115,5.94224 12.9379,7.61888 -0.3426,0.85267 -3.5266,9.63316 -7.0756,19.51221 -3.549,9.87904 -6.5861,18.09521 -6.749,18.25816 -0.163,0.16295 -3.6774,-1.26588 -7.8098,-3.17517 -13.8518,-6.39993 -21.439,-7.98818 -38.3035,-8.0182 -17.652,-0.0314 -24.164,1.45879 -29.2032,6.6828 -3.8107,3.95045 -5.2968,7.56627 -5.2968,12.88773 0,11.07369 8.5034,18.45375 30.4319,26.41169 43.8426,15.91062 59.8326,26.13004 68.6142,43.85202 5.2819,10.65922 7.4002,22.24472 6.633,36.27681 -1.7581,32.15654 -20.8588,51.87505 -57.069,58.91504 -9.7015,1.88617 -39.8786,2.72712 -50.6101,1.41037 z"
     id="path4138"
     inkscape:connector-curvature="0" />
</svg>
